Coordinates
version=1
nRows=21
nColumns=12
inDegrees=yes

Units are S.I. units (second, meters, Newtons, ...)
Angles are in degrees

endheader
time	SC_y	SC_z	SC_x	AC_y	AC_z	AC_x	GH_y	GH_z	GH_yy	EL_x	PS_y
       0.0              -52.32          23.24           63.5          41.13         -19.27         -11.71         -176.5          70.95         -134.6          97.84          52.94
   0.01468              -52.32          23.24           63.5          41.13         -19.27         -11.71         -176.4          70.94         -134.6          97.84          52.96
   0.02936              -52.32          23.24           63.5          41.13         -19.26         -11.71         -176.4          70.93         -134.5          97.84          52.98
   0.04405              -52.32          23.24           63.5          41.13         -19.26         -11.71         -176.3          70.92         -134.5          97.83          52.99
   0.05873              -52.32          23.24          63.49          41.13         -19.25         -11.71         -176.3           70.9         -134.5          97.83          53.01
   0.07341              -52.32          23.24          63.49          41.13         -19.25         -11.71         -176.2          70.89         -134.5          97.82          53.03
   0.08809              -52.32          23.24          63.49          41.13         -19.24         -11.71         -176.1          70.88         -134.4          97.82          53.05
    0.1028              -52.32          23.24          63.49          41.13         -19.24         -11.71         -176.0          70.86         -134.4          97.81          53.07
    0.1175              -52.32          23.24          63.48          41.13         -19.23         -11.71         -176.0          70.85         -134.4           97.8          53.09
    0.1321              -52.31          23.24          63.48          41.13         -19.22         -11.71         -175.9          70.83         -134.3           97.8          53.12
    0.1468              -52.31          23.24          63.48          41.13         -19.22         -11.71         -175.8          70.81         -134.3          97.79          53.15
    0.1615              -52.31          23.24          63.47          41.13         -19.21         -11.71         -175.7           70.8         -134.2          97.78          53.17
    0.1762              -52.31          23.24          63.47          41.13          -19.2         -11.71         -175.6          70.77         -134.2          97.78           53.2
    0.1909              -52.31          23.24          63.46          41.13         -19.19         -11.71         -175.5          70.75         -134.1          97.77          53.24
    0.2056              -52.31          23.24          63.46          41.13         -19.18         -11.71         -175.3          70.73         -134.1          97.76          53.27
    0.2202              -52.31          23.24          63.45          41.13         -19.17         -11.71         -175.2           70.7         -134.0          97.75          53.31
    0.2349               -52.3          23.24          63.45          41.13         -19.16         -11.71         -175.0          70.67         -134.0          97.74          53.36
    0.2496               -52.3          23.24          63.44          41.13         -19.15         -11.72         -174.9          70.64         -133.9          97.72           53.4
    0.2643               -52.3          23.24          63.44          41.13         -19.13         -11.72         -174.7          70.61         -133.8          97.71          53.45
     0.279               -52.3          23.24          63.43          41.13         -19.12         -11.72         -174.5          70.57         -133.7           97.7          53.51
    0.2936              -52.29          23.24          63.42          41.13          -19.1         -11.72         -174.3          70.53         -133.6          97.68          53.57
